<svg width="48" height="48" viewBox="0 0 48 48" fill="none" xmlns="http://www.w3.org/2000/svg">
<path d="M48 24C48 37.2548 37.2548 48 24 48C10.7452 48 0 37.2548 0 24C0 10.7452 10.7452 0 24 0C37.2548 0 48 10.7452 48 24V24Z" fill="white"/>
<path fill-rule="evenodd" clip-rule="evenodd" d="M9.60156 23.9991C9.60156 16.0589 16.0619 9.59961 24.0011 9.59961C31.9413 9.59961 38.4016 16.0589 38.4016 23.9991C38.4016 31.9403 31.9413 38.3986 24.0011 38.3986C16.0619 38.3986 9.60156 31.9393 9.60156 23.9991ZM37.1308 24.5648L37.1308 24.5647C37.1437 24.377 37.1565 24.1898 37.1565 23.9991C37.1565 19.3043 34.6764 15.1868 30.9675 12.8592C30.9302 12.88 30.8877 12.9059 30.8425 12.9335C30.6381 13.0582 30.3762 13.218 30.2621 13.1032C30.1137 12.9548 29.7651 12.7403 29.7651 12.7403C30.0639 12.5411 29.1705 12.2108 29.1705 12.2108L28.1307 12.2941H27.3877C27.3224 12.2941 27.2288 12.2737 27.1234 12.2508C26.9876 12.2212 26.8321 12.1874 26.6925 12.1874C26.5202 12.1874 26.1759 12.2986 25.9166 12.3823L25.9166 12.3823C25.8057 12.4181 25.7104 12.4489 25.6507 12.4639C25.5729 12.4832 25.4554 12.5349 25.3297 12.5901C25.1384 12.6742 24.9281 12.7667 24.8091 12.7667C24.6119 12.7667 24.3131 13.1408 24.3131 13.1408C24.3131 13.1408 23.9665 13.775 24.2653 13.6754C24.5611 13.5758 24.9585 13.5707 25.0063 13.7201C25.0308 13.7911 25.0661 13.8847 25.1018 13.9793L25.1018 13.9793L25.1018 13.9794L25.1018 13.9795L25.1019 13.9796L25.1019 13.9797L25.1019 13.9797C25.1403 14.0815 25.1792 14.1845 25.2055 14.2619C25.2543 14.4103 25.9485 14.4581 25.9485 14.4581C25.9485 14.4581 26.0481 14.21 26.1965 14.0118C26.3449 13.8136 26.4933 13.5656 26.4933 13.5656C26.4933 13.5656 26.7413 14.0617 26.7911 14.21C26.8399 14.3595 26.6915 14.8046 26.6915 14.8046C26.6915 14.8046 26.1467 15.1512 25.9973 15.1512C25.8479 15.1512 25.0043 14.4072 25.0043 14.4072C24.7075 14.5068 24.4595 14.6563 24.4595 14.6563C24.1129 15.0039 23.7652 15.3007 23.7652 15.3007C23.7652 15.3007 23.4654 15.4003 23.2682 15.5487C23.1793 15.6152 23.0442 15.6583 22.9114 15.7006C22.7483 15.7525 22.5888 15.8033 22.5232 15.8953C22.2762 16.2419 22.6187 16.4899 22.6187 16.4899L22.3138 16.8863L22.1014 17.0357L21.3767 17.1851L20.9427 17.2583C20.9915 17.4067 20.8949 17.8783 20.8949 17.8783V18.7188C20.8949 18.7188 21.6105 18.917 21.7599 18.917C21.7816 18.917 21.8081 18.9181 21.838 18.9194H21.838H21.838H21.8381H21.8381C22.0125 18.9266 22.3054 18.9387 22.4754 18.7687C22.6716 18.5705 22.9948 18.1242 23.0934 17.9759C23.192 17.8275 23.3262 17.6791 23.625 17.5795C23.7979 17.5218 23.8839 17.4472 23.9555 17.3851C24.0063 17.3411 24.0498 17.3033 24.1118 17.2827C24.2613 17.2329 24.8447 17.1332 24.8447 17.1332C24.8447 17.1332 25.1892 17.3823 25.3366 17.4809C25.3537 17.4925 25.357 17.5104 25.3611 17.533C25.3741 17.6035 25.3954 17.7197 25.8662 17.8336V18.2259L26.5258 18.1761L26.227 17.7797L26.1762 17.7665L25.6019 17.1851L25.5592 16.7389C25.5592 16.7389 26.1701 17.0855 26.3683 17.1851C26.5665 17.2837 26.9893 17.5805 26.9893 17.5805L27.283 18.2737L27.6794 18.7575C27.5463 18.5918 27.218 18.1242 27.7303 18.1242C27.7303 18.1242 28.2019 18.1741 28.3503 18.1242C28.4997 18.0755 28.6339 18.0267 28.831 17.9271C28.9278 17.8785 28.9114 17.771 28.8923 17.645C28.8722 17.5127 28.849 17.3598 28.95 17.2329C29.1492 16.9848 29.4073 16.8852 29.5557 16.8365C29.7052 16.7867 30.2042 16.5386 30.2042 16.5386L30.7531 16.6383C30.5061 16.8365 30.2103 17.1332 30.4075 17.0845C30.6057 17.0347 31.0539 17.2827 31.2511 17.4311C31.4493 17.5795 31.3009 17.9271 31.3009 17.9271C31.3009 17.9271 30.7561 17.8773 30.4095 17.8275C30.0619 17.7787 29.5161 17.8773 29.5161 17.8773L29.0709 18.1242C29.0709 18.1242 28.7731 18.2239 28.8229 18.4708C28.8717 18.7188 29.0709 19.0177 29.2691 19.2647C29.3134 19.3206 29.3553 19.379 29.3954 19.4348L29.3955 19.435L29.3955 19.435C29.5335 19.6272 29.6489 19.788 29.7631 19.7109C29.9135 19.6113 30.4095 19.3145 30.4095 19.3145C30.4095 19.3145 30.3089 19.6611 30.3597 19.9091C30.4095 20.1561 30.4095 20.5037 30.4095 20.5037C30.4095 20.5037 29.9135 20.5037 30.0619 20.6043C30.1735 20.6774 30.3217 20.9106 30.4247 21.0726C30.4577 21.1246 30.4861 21.1692 30.5071 21.1989C31.0031 21.8921 32.0439 23.4289 32.1435 23.6271C32.1849 23.7116 32.2007 23.8147 32.2163 23.9162C32.2374 24.054 32.2581 24.189 32.3417 24.2715C32.6385 24.5693 33.2331 24.2715 33.3815 24.1729C33.4281 24.1425 33.5082 24.0973 33.601 24.0449C33.8058 23.9293 34.0722 23.779 34.1743 23.6769L34.1759 23.6753L34.176 23.6753L34.176 23.6752L34.1761 23.6751L34.1761 23.6751C34.2345 23.6175 34.2624 23.59 34.293 23.5657C34.3209 23.5436 34.3509 23.5243 34.4084 23.4872C34.4477 23.4619 34.4998 23.4284 34.5727 23.3801C34.8695 23.1819 35.0677 23.0325 34.9193 22.8841C34.7709 22.7357 34.4742 22.1899 34.4742 22.1899C34.0259 22.2895 33.5807 22.0415 33.5807 21.8931C33.5807 21.7447 33.1843 21.1501 33.1843 21.1501C33.1843 21.1501 33.2331 21.0515 33.5807 21.2487C33.7126 21.3236 33.8368 21.4271 33.9566 21.5267C34.1535 21.6906 34.3381 21.8443 34.524 21.8443C34.7988 21.8443 34.9455 21.9289 35.2417 22.0995L35.3157 22.1421C35.5075 22.2509 35.639 22.3751 35.7514 22.4814C35.8427 22.5678 35.9215 22.6423 36.0099 22.6869C36.2081 22.7865 36.506 23.1829 36.506 23.1829C36.506 23.1829 36.8038 23.8771 36.8526 24.0763C36.8744 24.1619 36.9418 24.3216 37.0117 24.4872L37.0117 24.4872C37.0489 24.5753 37.0867 24.665 37.1189 24.7462C37.1226 24.6856 37.1267 24.6252 37.1308 24.5648ZM13.5036 16.2419C13.5036 16.3032 13.4777 16.3501 13.45 16.4004C13.388 16.5127 13.3168 16.6419 13.5036 16.9859C13.8491 17.6303 13.5524 17.9281 13.5524 17.9281C13.5524 17.9281 12.7087 18.5227 12.5603 18.6223C12.4119 18.7219 12.0155 19.2667 12.2625 19.1173C12.5105 18.9689 12.8073 18.8205 12.5603 19.2169C12.4872 19.334 12.3969 19.4725 12.3033 19.616L12.3033 19.616L12.3033 19.6161C12.0795 19.9594 11.8371 20.3311 11.7675 20.5067C11.7317 20.5973 11.6433 20.7334 11.5453 20.8842C11.3738 21.1483 11.1729 21.4576 11.1729 21.6471C11.1729 21.7773 11.1351 21.9643 11.0966 22.1544C11.0471 22.3992 10.9965 22.6489 11.0245 22.7886C11.0581 22.9613 10.9483 23.4706 10.8619 23.6799C10.929 20.8929 11.8671 18.3245 13.4162 16.2236C13.467 16.2286 13.5036 16.2419 13.5036 16.2419ZM19.2971 11.7259C17.7298 12.3297 16.3089 13.2221 15.0963 14.3412L15.0946 14.3455L15.0946 14.3455C15.0729 14.4018 15.0522 14.4553 15.0383 14.5068C14.9885 14.7061 15.387 14.5566 15.387 14.5566L15.8322 14.7548L16.378 14.5566C16.378 14.5566 16.5274 14.2588 16.873 14.0118C17.122 13.8334 17.1676 13.7567 17.228 13.6551C17.2519 13.6148 17.2781 13.5707 17.3202 13.5148C17.3936 13.4172 17.3944 13.4165 17.4544 13.3565C17.5156 13.2953 17.6386 13.1723 17.9636 12.8216C18.609 12.1264 18.9556 12.1274 18.9556 12.1274C18.9556 12.1274 19.1426 11.9241 19.2971 11.7259ZM21.0382 15.4978L20.841 15.201L21.0382 14.7548L21.5159 14.9459V14.0606L21.9723 13.8136L22.3514 14.3584L22.9348 15.0039L22.5476 15.3007L21.5149 15.4989V14.9734L21.0382 15.4978ZM27.9793 20.3065C27.9793 20.3065 27.6002 20.0666 27.4843 20.1581C26.9883 20.5555 25.8469 20.3065 25.6019 20.2059C25.3529 20.1062 25.2045 19.9589 25.2045 19.8095C25.2045 19.66 24.9809 18.9414 24.9809 18.9414C24.9809 18.9414 24.4971 19.0278 24.3487 19.0278C24.2003 19.0278 23.81 18.8723 23.81 18.8723C23.81 18.8723 23.316 18.9191 23.1178 19.0187C22.9216 19.1183 22.5252 19.2657 22.3768 19.3155C22.2284 19.3653 21.833 19.4141 21.833 19.4141C21.3868 19.2159 21.0402 19.7109 20.9396 19.9091C20.9008 19.9884 20.8458 20.0517 20.7937 20.1118C20.715 20.2026 20.6428 20.2858 20.6428 20.4051C20.6428 20.6043 20.2952 20.9011 20.1468 20.9997C20.1181 21.0191 20.0742 21.046 20.0211 21.0786C19.8017 21.2131 19.4247 21.4444 19.3052 21.6441C19.1558 21.8921 19.0074 22.1899 18.9576 22.4379C18.9088 22.6859 18.9088 22.8841 18.9088 23.2307C18.9088 23.3545 18.9025 23.4595 18.8966 23.557L18.8966 23.557C18.886 23.7324 18.8768 23.8833 18.9088 24.0753C18.9566 24.3711 19.4536 25.1151 19.6508 25.3641C19.85 25.6121 20.098 25.9089 20.3471 26.0573C20.593 26.2067 20.9417 26.5035 20.9417 26.5035C20.9417 26.5035 21.1388 26.8003 21.5342 26.6519C21.7001 26.5897 21.8655 26.5534 22.0272 26.5179L22.0272 26.5179L22.0272 26.5179C22.2539 26.4681 22.4732 26.42 22.6767 26.3043C23.0243 26.1071 23.5691 25.8581 23.5691 26.1559C23.5691 26.4537 23.7663 26.653 24.0641 26.5533C24.1114 26.5375 24.1637 26.518 24.218 26.4977C24.5054 26.3902 24.849 26.2618 24.8071 26.5533C24.7761 26.7743 24.8247 27.0346 24.8643 27.2464C24.887 27.3679 24.9067 27.4734 24.9067 27.5464C24.9067 27.5861 24.9046 27.6259 24.9026 27.6654C24.8946 27.8211 24.8869 27.9718 25.0053 28.0902C25.0516 28.1365 25.1223 28.1926 25.1976 28.2524C25.3636 28.3842 25.5521 28.5339 25.5521 28.636C25.5521 28.7833 25.5999 29.2794 25.6995 29.4786C25.7991 29.6778 25.8977 29.9746 25.7981 30.1728C25.6995 30.371 25.4992 30.9168 25.4992 30.9168C25.4992 30.9168 25.3956 31.362 25.4454 31.5104C25.4952 31.6608 25.5867 31.858 25.8347 32.106C25.9777 32.2485 26.0166 32.4082 26.0526 32.5558C26.079 32.6642 26.1038 32.7661 26.167 32.85C26.3164 33.0482 26.4669 33.6428 26.4669 33.6428L26.4892 34.1388V34.584C26.4892 34.584 27.5829 34.4356 27.7811 34.3858C27.9793 34.336 28.7548 33.9884 28.952 33.7912C29.0408 33.7019 29.0821 33.6227 29.1227 33.5446C29.1727 33.4485 29.2218 33.3542 29.3575 33.2454C29.6066 33.0482 30.0578 32.6996 30.0578 32.6996L30.0091 31.9566L30.6067 31.1648L31.0539 30.7176C31.0539 30.7176 31.4493 30.1728 31.4005 29.9746C31.3517 29.7764 31.2521 28.7844 31.2521 28.7844C31.2521 28.7844 31.4513 28.3382 31.5997 28.14C31.6529 28.0681 31.6872 27.9898 31.7232 27.9075C31.787 27.7619 31.8563 27.6036 32.0459 27.4458C32.2975 27.2371 32.4773 26.9922 32.6171 26.8017L32.6172 26.8016L32.6177 26.8009C32.6432 26.7662 32.6673 26.7333 32.6903 26.7028L32.7217 26.6609C32.8773 26.4532 33.1431 26.0983 33.2351 25.9598C33.3337 25.8103 33.4344 25.3652 33.4344 25.3652L32.5399 25.5136C32.3669 25.2243 32.0079 24.7333 31.7093 24.3248L31.7092 24.3247L31.7091 24.3246C31.4956 24.0326 31.313 23.7827 31.2511 23.6789C31.1027 23.4309 30.9543 22.9349 30.9045 22.7367C30.8731 22.6125 30.7631 22.3494 30.6732 22.1347L30.6732 22.1346L30.6731 22.1345C30.6204 22.0085 30.5747 21.8992 30.5559 21.8443C30.5203 21.736 30.3266 21.4691 30.1858 21.2751C30.1337 21.2032 30.0888 21.1414 30.0619 21.1013C30.0038 21.0141 29.8616 20.9439 29.7136 20.8708C29.608 20.8187 29.4995 20.7651 29.4165 20.7029C29.2183 20.5545 27.9793 20.3065 27.9793 20.3065ZM33.1853 29.876C33.1853 30.0244 33.1355 30.4218 33.0857 30.62C33.0649 30.6995 33.0368 30.8031 33.0074 30.9113L33.0072 30.9118C32.9634 31.0731 32.9167 31.2446 32.8875 31.362C32.8377 31.5612 32.5897 31.9576 32.4423 32.0572C32.3826 32.0973 32.3067 32.1694 32.2276 32.2445L32.2276 32.2445C32.11 32.3561 31.9856 32.4742 31.8975 32.5034C31.7492 32.5532 31.6485 32.1558 31.6983 31.9576C31.7492 31.7594 31.9961 31.2146 31.9961 31.2146C31.9961 31.2146 32.0459 30.9178 32.0947 30.7186C32.1456 30.5214 32.7402 30.2734 32.7402 30.2734L33.1375 29.5295C33.1374 29.5305 33.139 29.5377 33.1415 29.5498L33.1415 29.5498C33.153 29.6043 33.1853 29.7573 33.1853 29.876ZM11.4697 27.1002C11.3406 26.9853 11.2492 26.9386 11.1851 26.9223C11.7797 29.5314 13.1509 31.8407 15.0414 33.6062C15.1576 33.6381 15.2272 33.6124 15.3009 33.5853C15.3543 33.5657 15.4098 33.5452 15.4866 33.5452C15.6827 33.5452 15.9816 33.2962 15.9816 33.2962L15.7824 32.7016L15.9816 31.9586L16.2296 31.2654C16.2296 31.2654 16.2296 30.7694 15.9816 30.7186C15.8516 30.693 15.6672 30.5583 15.4996 30.4358C15.3474 30.3247 15.2091 30.2236 15.138 30.2236C14.9896 30.2236 14.7416 30.125 14.5932 30.0254C14.5432 29.9919 14.4765 29.9585 14.4061 29.9233C14.2674 29.8538 14.1145 29.7773 14.0484 29.6788C13.9488 29.5284 13.7993 29.2824 13.7007 29.0334C13.6838 28.9905 13.6712 28.9551 13.66 28.9234C13.6061 28.7712 13.5836 28.7078 13.2545 28.3392C13.0165 28.0711 12.9575 28.0002 12.8833 27.9536C12.8342 27.9228 12.7784 27.9026 12.6599 27.8432C12.5169 27.7714 12.4196 27.7004 12.3298 27.6348C12.2325 27.5637 12.1439 27.4991 12.0155 27.4468C11.7675 27.3461 11.6567 27.2628 11.4697 27.1002Z" fill="#228CC4"/>
</svg>
